<?xml version="1.0" encoding="iso-8859-1"?>
<!-- Generator: Adobe Illustrator 19.0.0, SVG Export Plug-In . SVG Version: 6.00 Build 0)  -->
<svg version="1.1" id="Capa_1" xmlns="http://www.w3.org/2000/svg" xmlns:xlink="http://www.w3.org/1999/xlink" x="0px" y="0px"
	 viewBox="0 0 512 512" style="enable-background:new 0 0 512 512;" xml:space="preserve">
<g>
	<g>
		<path d="M274,228.878h-36c-4.142,0-7.5,3.358-7.5,7.5c0,4.142,3.358,7.5,7.5,7.5h36c4.142,0,7.5-3.358,7.5-7.5
			C281.5,232.236,278.142,228.878,274,228.878z"/>
	</g>
</g>
<g>
	<g>
		<path d="M504.5,256.498h-6v-55.494c0-4.142-3.358-7.5-7.5-7.5h-8.831L433.68,88.954l28.834-9.562
			c8.342-2.77,13.946-10.581,13.946-19.437c0-2.143-0.333-4.266-0.994-6.329c-1.693-5.233-5.312-9.475-10.19-11.944
			c-4.827-2.443-10.311-2.85-15.437-1.146l-41.22,13.67c-3.932,1.304-6.062,5.548-4.758,9.479c1.304,3.931,5.547,6.062,9.479,4.758
			l41.225-13.671c1.306-0.435,2.705-0.33,3.937,0.294c1.283,0.649,2.239,1.777,2.686,3.159c0.18,0.562,0.271,1.144,0.271,1.729
			c0,2.382-1.477,4.472-3.671,5.201L70.769,193.503H36.237L382.348,78.721c3.932-1.304,6.062-5.548,4.758-9.479
			c-1.304-3.931-5.546-6.061-9.479-4.758L27.446,180.616c-8.342,2.77-13.946,10.573-13.946,19.417c0,0.238,0.007,0.463,0.014,0.687
			c-0.004,0.095-0.014,0.187-0.014,0.283v55.494h-6c-4.142,0-7.5,3.358-7.5,7.5v59.999c0,4.142,3.358,7.5,7.5,7.5h2V465
			c0,4.142,3.358,7.5,7.5,7.5h30c4.142,0,7.5-3.358,7.5-7.5V331.497h179v65.094c-4.065-5.864-10.84-9.715-18.5-9.715
			c-12.407,0-22.5,10.093-22.5,22.5v7.5H189c-6.341,0-11.5,5.159-11.5,11.5v18c0,6.341,5.159,11.5,11.5,11.5h134
			c6.341,0,11.5-5.159,11.5-11.5v-18c0-6.341-5.159-11.5-11.5-11.5h-3.5v-7.5c0-12.407-10.093-22.5-22.5-22.5
			c-7.66,0-14.435,3.851-18.5,9.715v-65.094h105c4.142,0,7.5-3.358,7.5-7.5c0-4.142-3.358-7.5-7.5-7.5H15v-44.999l15,0.005v18.495
			c0,4.142,3.358,7.5,7.5,7.5h437c4.142,0,7.5-3.358,7.5-7.5v-18.495l15-0.005v44.999h-80.5c-4.142,0-7.5,3.358-7.5,7.5
			c0,4.142,3.358,7.5,7.5,7.5h41V465c0,4.142,3.358,7.5,7.5,7.5h30c4.142,0,7.5-3.358,7.5-7.5V331.497h2c4.142,0,7.5-3.358,7.5-7.5
			v-59.999C512,259.856,508.642,256.498,504.5,256.498z M207.5,409.376c0-4.136,3.364-7.5,7.5-7.5s7.5,3.364,7.5,7.5v7.5h-15
			V409.376z M289.5,409.376c0-4.136,3.364-7.5,7.5-7.5s7.5,3.364,7.5,7.5v7.5h-15V409.376z M319.5,431.875v11h-127v-11H319.5z
			 M248.5,331.502h15v56.664c-2.347-0.833-4.871-1.29-7.5-1.29c-2.629,0-5.153,0.458-7.5,1.29V331.502z M248.5,409.376
			c0-4.136,3.364-7.5,7.5-7.5s7.5,3.364,7.5,7.5v7.5h-15V409.376z M24.5,331.502h15V457.5h-15V331.502z M419.35,93.707
			l46.284,99.796H338.833v-14.5c0-6.341-5.159-11.5-11.5-11.5H196.822L419.35,93.707z M188.167,182.503h135.667v11H188.167V182.503z
			 M173.856,175.12c-0.438,1.215-0.689,2.519-0.689,3.884v14.5h-54.745L173.856,175.12z M483.5,256.498l-355.25,0.005
			c-4.142,0-7.5,3.358-7.5,7.5c0,4.142,3.358,7.5,7.5,7.5H467v10.995H45v-10.995h50.75c4.142,0,7.5-3.358,7.5-7.5
			c0-4.142-3.358-7.5-7.5-7.5l-67.25-0.005v-47.995h455V256.498z M487.5,457.5h-15V331.502h15V457.5z"/>
	</g>
</g>
<g>
</g>
<g>
</g>
<g>
</g>
<g>
</g>
<g>
</g>
<g>
</g>
<g>
</g>
<g>
</g>
<g>
</g>
<g>
</g>
<g>
</g>
<g>
</g>
<g>
</g>
<g>
</g>
<g>
</g>
</svg>
